<?xml version="1.0" standalone="no"?>
<!DOCTYPE svg PUBLIC "-//W3C//DTD SVG 20010904//EN"
 "http://www.w3.org/TR/2001/REC-SVG-20010904/DTD/svg10.dtd">
<svg version="1.0" xmlns="http://www.w3.org/2000/svg"
 width="872.000000pt" height="752.000000pt" viewBox="0 0 872.000000 752.000000"
 preserveAspectRatio="xMidYMid meet">
<metadata>
Created by potrace 1.16, written by Peter Selinger 2001-2019
</metadata>
<g transform="translate(0.000000,752.000000) scale(0.100000,-0.100000)"
fill="#c9b896" stroke="none">
<path d="M4309 6838 c-40 -68 -53 -126 -39 -164 11 -29 9 -29 -32 -4 -56 34
-118 21 -118 -25 0 -25 22 -56 102 -142 27 -29 55 -68 63 -88 20 -46 19 -119
-1 -161 -46 -97 -165 -98 -181 -2 -5 32 -1 41 26 68 23 24 37 30 53 25 21 -6
21 -4 -5 19 -22 20 -39 26 -76 26 -59 0 -92 -23 -115 -81 -41 -101 36 -224
148 -236 77 -9 114 4 167 57 l49 49 44 -43 c51 -51 100 -70 167 -64 117 12
194 147 143 254 -31 66 -127 86 -181 39 l-28 -24 31 -1 c67 0 99 -86 49 -135
-68 -69 -175 8 -175 126 0 66 32 125 115 214 61 66 73 92 55 124 -15 29 -68
28 -114 -4 -26 -18 -36 -20 -36 -10 0 7 5 17 10 20 23 14 4 117 -29 157 -6 7
-21 25 -33 41 l-23 27 -36 -62z"/>
<path d="M3998 6530 c-78 -23 -145 -90 -177 -175 -25 -66 -26 -105 -6 -146 20
-37 15 -45 -35 -53 l-40 -6 6 -68 c3 -37 6 -68 7 -68 8 -8 112 45 112 57 0 11
16 13 80 11 l80 -4 -42 44 c-93 96 -97 215 -10 289 78 66 198 34 267 -71 30
-46 40 -39 33 25 -12 115 -155 201 -275 165z"/>
<path d="M4578 6530 c-78 -23 -139 -92 -153 -171 -10 -52 8 -56 39 -9 29 44
93 85 148 95 53 10 115 -22 151 -77 47 -73 32 -157 -44 -234 -39 -40 -40 -42
-17 -46 13 -2 44 -4 71 -3 26 0 47 -4 47 -10 0 -10 117 -62 124 -54 2 2 6 30
8 62 5 63 -5 77 -55 77 -34 0 -37 7 -20 53 60 168 -129 368 -299 317z"/>
<path d="M4142 6308 c-24 -30 -18 -74 13 -94 21 -14 30 -14 54 -4 16 6 32 19
36 27 8 21 -20 62 -51 73 -33 13 -39 13 -52 -2z"/>
<path d="M4505 6311 c-30 -13 -58 -48 -52 -65 10 -24 54 -48 76 -41 49 15 67
68 35 99 -17 18 -29 19 -59 7z"/>
<path d="M4322 6108 c-16 -16 -15 -33 2 -47 8 -7 12 -24 10 -43 -5 -39 -10
-44 -29 -28 -14 12 -14 15 0 30 22 24 19 30 -15 30 -38 0 -49 -23 -29 -59 10
-17 24 -26 39 -26 22 -1 25 -5 23 -32 -3 -32 18 -60 37 -48 5 3 10 24 10 45 0
31 3 38 15 33 19 -7 55 24 55 48 0 26 -27 48 -50 42 -24 -6 -25 -12 -3 -28 17
-13 10 -35 -12 -35 -19 0 -23 50 -6 78 22 36 -17 70 -47 40z"/>
<path d="M3922 6050 c-66 -14 -159 -69 -206 -121 -24 -27 -61 -83 -83 -125
l-41 -77 -17 37 c-21 45 -68 81 -114 90 -53 10 -115 -24 -135 -75 -20 -50 -20
-51 5 -78 15 -16 28 -21 44 -17 34 9 71 -9 111 -51 l36 -38 -6 45 c-4 25 -14
56 -22 68 -18 27 -11 41 11 22 17 -14 35 -72 35 -117 0 -58 -84 -204 -173
-298 -91 -98 -118 -115 -182 -115 -25 0 -45 -4 -45 -8 0 -20 39 -42 73 -42 54
0 83 15 156 81 102 93 362 239 424 239 13 0 27 4 32 9 6 5 35 12 65 15 l55 6
-68 -25 c-218 -78 -446 -218 -611 -376 -159 -151 -239 -259 -375 -501 -32 -57
-141 -338 -141 -364 0 -7 -5 -25 -11 -41 l-11 -28 -10 26 c-7 21 -1 50 26 130
58 174 88 253 105 279 55 80 77 189 47 235 -28 43 -41 32 -38 -34 4 -66 -13
-109 -80 -198 -57 -75 -131 -127 -206 -144 -38 -8 -100 6 -122 28 -13 14 -12
15 10 9 14 -4 45 -9 70 -12 40 -5 43 -4 23 8 -38 23 -65 67 -67 108 -6 118
-156 74 -156 -45 0 -55 26 -101 78 -135 25 -16 50 -30 55 -30 6 0 -18 -18 -51
-40 -127 -82 -203 -189 -223 -313 -36 -217 91 -397 278 -397 74 0 111 15 169
71 l41 40 -1 -150 -1 -151 -23 25 c-48 52 -98 77 -165 82 -84 7 -125 -8 -191
-67 -96 -89 -136 -228 -102 -360 29 -111 95 -197 208 -270 l58 -38 -46 -27
c-25 -15 -54 -41 -65 -58 -35 -58 -18 -161 30 -187 54 -29 120 5 107 55 -9 35
16 79 61 110 l38 25 -33 0 c-18 0 -49 -7 -69 -15 -42 -18 -43 -18 -43 -4 0 15
63 39 103 39 81 0 232 -119 291 -229 25 -46 28 -61 23 -107 -3 -30 -3 -54 1
-54 13 0 29 15 41 37 22 43 13 93 -34 179 -60 112 -134 293 -150 370 -6 33 10
89 24 80 4 -3 23 -46 41 -96 78 -217 206 -437 351 -606 156 -183 331 -312 594
-440 120 -59 172 -89 169 -98 -4 -10 16 -19 68 -31 164 -40 215 -67 255 -133
30 -49 30 -112 -1 -177 -42 -88 -102 -125 -208 -125 -162 0 -284 120 -362 358
-30 90 -89 187 -139 228 -22 18 2 9 78 -29 61 -30 120 -58 133 -62 l23 -7 -30
-27 c-38 -36 -47 -71 -30 -128 16 -58 70 -114 125 -131 57 -17 197 -15 239 2
24 10 36 23 40 43 4 15 8 34 11 41 2 7 -3 29 -11 48 -19 47 -70 69 -124 54
-43 -11 -51 -24 -51 -79 0 -44 -14 -61 -51 -61 -59 0 -140 91 -124 140 7 21 7
20 31 -5 30 -32 60 -30 87 7 34 45 3 108 -52 108 -63 0 -355 147 -438 221 -77
67 -164 88 -203 49 -30 -30 -25 -39 19 -33 58 8 105 -20 207 -121 137 -137
186 -256 140 -343 -24 -47 -38 -41 -21 8 8 23 15 53 15 68 l-1 26 -20 -28
c-28 -37 -69 -57 -117 -57 -47 0 -62 -14 -62 -60 1 -65 70 -117 144 -107 41 6
94 50 123 102 7 11 13 18 15 15 2 -3 19 -36 38 -74 43 -85 125 -170 195 -202
236 -108 460 3 482 240 5 57 3 72 -21 120 -15 30 -43 69 -62 86 l-36 31 79 -4
c56 -3 77 -7 75 -16 -1 -7 2 -19 8 -25 10 -13 4 -26 -12 -26 -5 0 -13 11 -18
25 -13 35 -34 33 -25 -2 17 -70 71 -73 88 -5 3 15 0 25 -9 29 -32 12 -10 23
47 23 l62 0 -25 -19 c-13 -11 -37 -43 -53 -73 -26 -46 -29 -64 -30 -133 0 -91
12 -121 76 -190 85 -92 243 -124 372 -75 82 31 171 116 222 214 22 42 42 76
45 76 3 0 14 -17 25 -37 37 -69 119 -102 178 -72 64 33 91 91 63 134 -14 21
-25 25 -62 25 -41 0 -51 5 -87 40 -22 22 -42 38 -45 36 -2 -3 0 -22 6 -43 6
-21 14 -49 18 -63 l7 -25 -22 21 c-14 13 -24 38 -27 71 -10 77 44 183 143 280
104 103 143 127 204 126 27 0 49 2 49 6 -1 32 -58 52 -111 38 -21 -5 -68 -34
-105 -64 -86 -70 -355 -203 -423 -211 -60 -6 -81 -25 -81 -73 0 -31 5 -42 26
-56 23 -15 29 -15 52 -2 14 8 29 25 33 39 l6 25 12 -29 c24 -59 -31 -137 -107
-152 -43 -9 -62 9 -62 56 0 75 -72 112 -138 70 -60 -37 -70 -126 -19 -164 25
-18 42 -21 140 -21 127 0 156 11 210 77 53 66 47 171 -12 203 -24 13 -24 14
-5 15 12 0 70 25 129 55 l108 56 -41 -45 c-47 -51 -90 -132 -122 -231 -63
-195 -175 -307 -324 -322 -97 -10 -185 35 -230 116 -33 62 -34 122 -3 182 35
65 85 95 205 122 82 19 108 29 125 49 12 14 87 57 167 96 167 81 237 125 364
226 266 212 464 507 582 866 44 132 42 129 53 111 14 -22 29 16 56 139 27 121
40 152 82 194 127 128 341 -23 319 -226 -8 -82 -33 -133 -101 -206 -47 -51
-77 -72 -154 -109 -125 -60 -198 -110 -250 -170 -38 -44 -40 -45 -21 -12 32
56 80 196 80 231 l0 32 31 -32 c52 -53 112 -55 177 -6 54 42 72 92 72 207 0
138 -23 177 -105 177 -49 0 -74 -15 -91 -56 -27 -65 5 -124 67 -124 103 0 78
-155 -28 -176 -39 -8 -53 12 -24 32 29 21 27 58 -5 83 -31 24 -43 26 -79 9
-24 -11 -26 -16 -24 -67 1 -53 -36 -178 -95 -313 -9 -21 -15 -41 -14 -45 1 -5
-15 -34 -36 -66 -49 -76 -60 -109 -52 -160 13 -77 53 -96 48 -21 -8 93 113
265 223 319 52 25 131 26 169 2 38 -25 29 -29 -29 -12 -90 27 -111 16 -45 -24
42 -26 61 -62 53 -103 -12 -62 76 -91 123 -41 30 33 38 61 31 119 -5 51 -47
103 -98 125 -16 6 -29 14 -29 18 0 3 23 19 50 35 72 43 160 133 186 191 61
132 54 294 -17 387 -112 150 -296 170 -405 45 -31 -36 -36 -38 -30 -17 3 14 6
85 6 158 l0 133 30 -35 c69 -79 189 -100 288 -50 62 31 106 79 141 154 23 48
26 68 26 160 0 95 -3 111 -29 168 -33 71 -131 171 -209 212 -48 26 -59 40 -30
40 23 0 81 47 104 84 48 78 1 186 -81 186 -33 0 -60 -36 -60 -78 0 -42 -45
-102 -77 -102 -14 0 -15 -2 -4 -9 8 -5 34 -3 65 5 61 16 56 16 56 5 0 -5 -18
-16 -40 -25 -70 -28 -150 2 -243 93 -101 98 -148 197 -128 269 11 38 -5 44
-34 12 -14 -15 -17 -32 -13 -88 3 -60 9 -77 42 -128 107 -164 165 -215 340
-300 204 -99 297 -238 272 -407 -9 -59 -56 -129 -113 -166 -95 -63 -205 -30
-251 75 -11 27 -30 94 -41 149 -11 55 -23 108 -27 119 -6 15 -4 17 14 12 12
-4 34 0 51 9 48 24 55 91 11 102 -27 7 -25 21 4 29 29 7 77 -16 105 -52 45
-57 15 -143 -46 -131 -36 7 -51 0 -68 -34 -44 -83 29 -175 119 -151 55 15 71
50 74 173 3 96 1 114 -18 155 -29 60 -88 99 -148 99 -37 0 -48 -5 -72 -32
l-29 -32 -16 57 c-17 59 -75 195 -81 189 -2 -2 11 -55 30 -118 41 -139 51
-194 37 -184 -6 3 -11 14 -11 23 0 25 -85 272 -116 339 -43 91 -145 253 -220
349 -217 279 -495 475 -839 592 -46 16 -7 14 54 -3 30 -8 58 -12 62 -9 10 6
178 -71 262 -120 37 -22 93 -61 124 -89 96 -82 141 -107 193 -107 47 0 70 13
70 38 0 11 -8 13 -30 9 -48 -10 -100 20 -191 112 -70 70 -95 104 -133 178 -25
51 -46 106 -46 121 0 36 18 92 36 111 20 22 28 6 10 -21 -8 -12 -17 -43 -19
-67 l-4 -43 24 31 c32 40 76 63 107 55 50 -12 87 36 67 89 -22 58 -90 95 -151
82 -35 -8 -98 -67 -106 -102 -9 -32 -23 -25 -39 19 -30 90 -139 214 -219 252
-68 32 -139 41 -218 28 -77 -13 -120 -36 -177 -93 -55 -55 -76 -112 -76 -204
0 -88 14 -126 67 -181 l30 -32 -139 0 -138 -1 28 21 c15 11 40 43 54 72 37 71
36 180 0 253 -62 122 -222 193 -365 163z m161 -81 c78 -21 157 -123 157 -202
0 -48 -12 -78 -49 -120 -38 -42 -91 -68 -191 -92 -41 -10 -90 -24 -107 -32
l-33 -13 6 28 c4 22 0 36 -19 58 -22 25 -28 27 -53 19 -16 -6 -34 -20 -40 -33
-14 -28 -24 -18 -24 26 0 28 9 44 44 79 39 39 49 44 83 41 36 -3 38 -5 41 -38
5 -67 12 -81 48 -96 71 -30 144 21 144 100 -1 77 -36 96 -176 96 -75 0 -103
-4 -134 -20 -47 -24 -84 -70 -100 -127 -16 -52 -7 -87 30 -124 l28 -29 -86
-45 c-48 -24 -111 -60 -140 -80 -30 -19 -56 -35 -59 -35 -3 0 26 34 65 75 77
82 98 120 142 257 33 105 70 168 133 232 73 73 190 103 290 75z m746 -25 c94
-51 165 -151 210 -298 24 -79 70 -169 108 -211 14 -17 38 -43 52 -59 l26 -29
-32 22 c-18 12 -83 46 -145 75 -89 43 -107 55 -90 60 35 11 62 54 62 98 0 59
-44 134 -97 165 -40 23 -50 25 -159 21 -113 -3 -116 -4 -140 -31 -41 -48 -23
-137 32 -157 76 -29 136 6 132 74 -4 47 14 62 65 52 67 -12 125 -100 102 -153
-7 -17 -8 -16 -13 2 -16 73 -116 51 -116 -26 l0 -34 -55 17 c-31 10 -88 27
-127 38 -83 23 -129 52 -162 100 -20 30 -23 45 -20 101 3 57 8 73 38 112 21
28 55 57 85 73 69 35 166 31 244 -12z m-224 -449 c578 -94 1099 -566 1291
-1169 76 -239 99 -433 91 -750 -7 -228 -17 -313 -60 -476 -60 -230 -133 -392
-265 -590 -102 -155 -293 -347 -445 -448 -185 -124 -402 -214 -593 -247 -124
-21 -408 -21 -536 -1 -361 58 -756 297 -988 598 -82 106 -189 287 -242 410
-212 491 -205 1179 16 1668 130 288 285 496 496 667 218 176 451 283 740 342
75 15 395 13 495 -4z m-1841 -1040 c-14 -28 -36 -88 -51 -134 -25 -83 -26 -84
-39 -59 -15 29 -39 40 -89 40 -65 0 -135 -58 -155 -130 -13 -48 -13 -186 1
-234 16 -61 78 -84 144 -52 40 19 60 61 52 111 -8 49 -18 57 -80 63 -45 4 -53
8 -61 32 -7 19 -5 39 9 73 14 38 25 51 58 65 30 14 46 16 60 8 18 -9 18 -10
-2 -24 -46 -32 -13 -104 47 -104 22 0 23 -2 17 -47 -15 -108 -37 -201 -58
-242 -51 -105 -148 -134 -243 -75 -134 83 -159 263 -57 413 47 68 112 116 236
175 72 35 115 63 165 110 37 35 68 63 69 62 1 -1 -9 -24 -23 -51z m-213 -997
c47 -32 84 -112 109 -237 25 -127 25 -121 -4 -121 -29 0 -62 -27 -71 -57 -5
-17 1 -29 20 -47 l27 -25 -25 -6 c-30 -8 -81 16 -101 48 -42 66 -18 138 44
129 93 -13 105 136 13 174 -46 20 -88 9 -116 -28 -16 -21 -21 -46 -23 -119 -5
-113 7 -159 53 -209 55 -62 132 -77 181 -36 l29 25 18 -57 c9 -31 30 -83 46
-114 16 -32 29 -60 29 -64 0 -3 -28 20 -62 52 -42 38 -92 71 -148 97 -208 97
-287 179 -310 320 -11 69 3 151 35 199 60 90 180 126 256 76z"/>
<path d="M3965 5871 c-22 -10 -49 -25 -59 -33 -17 -13 -12 -15 59 -21 82 -7
116 -22 136 -58 13 -24 15 -94 5 -127 -8 -23 -7 -23 22 -8 63 33 99 135 68
194 -34 66 -148 92 -231 53z"/>
<path d="M4550 5872 c-80 -43 -90 -145 -20 -214 48 -49 61 -49 49 -2 -11 38 2
96 28 125 19 23 89 39 139 32 60 -7 63 12 8 47 -40 25 -58 30 -109 30 -39 0
-72 -6 -95 -18z"/>
<path d="M4215 5434 c-16 -3 -79 -14 -140 -26 -347 -66 -645 -256 -901 -573
-143 -177 -257 -410 -319 -650 -46 -181 -59 -295 -60 -535 0 -245 11 -351 56
-532 96 -386 332 -741 638 -962 104 -75 287 -169 401 -206 269 -89 569 -95
850 -19 277 75 549 255 749 494 214 257 328 516 393 891 29 171 31 501 4 669
-69 430 -217 730 -495 1005 -297 294 -619 437 -1001 445 -80 2 -158 1 -175 -1z
m292 -119 c125 -9 308 -62 434 -126 220 -110 446 -318 591 -540 89 -138 187
-372 221 -529 45 -204 59 -489 36 -698 -55 -503 -307 -944 -685 -1198 -343
-230 -744 -292 -1144 -177 -112 32 -286 118 -396 196 -144 102 -309 279 -411
442 -191 303 -286 719 -253 1110 21 257 84 504 178 690 128 258 338 489 581
642 105 67 163 94 283 132 122 40 182 52 298 61 93 7 118 6 267 -5z"/>
<path d="M4176 5215 c-293 -49 -526 -173 -733 -389 -180 -187 -306 -399 -377
-636 -51 -172 -68 -283 -73 -482 -7 -248 15 -422 79 -618 143 -439 462 -784
861 -929 298 -110 669 -90 952 51 276 137 514 380 649 664 203 424 230 924 75
1389 -107 319 -344 622 -614 782 -261 156 -545 214 -819 168z m-9 -374 c79
-40 115 -109 93 -176 -30 -91 -154 -84 -136 7 19 93 19 94 -9 116 -97 77 -230
-5 -274 -168 -11 -41 -22 -108 -26 -148 l-5 -73 32 32 c73 71 184 89 294 48
81 -30 127 -80 154 -168 28 -87 24 -153 -15 -239 -33 -74 -72 -113 -150 -149
-121 -56 -261 -28 -355 70 -91 94 -134 272 -110 459 23 188 119 336 256 394
50 21 70 24 135 20 49 -2 90 -11 116 -25z m690 15 c92 -25 143 -81 143 -160 0
-36 -5 -52 -25 -71 -59 -60 -156 2 -110 71 22 35 18 62 -14 95 -78 78 -215 2
-260 -145 -16 -53 -41 -197 -41 -238 0 -5 17 9 38 30 61 61 163 79 271 46 158
-47 232 -244 155 -414 -66 -146 -235 -217 -387 -160 -154 58 -232 212 -229
449 2 173 40 291 124 386 94 106 208 145 335 111z m-388 -1376 c123 -63 173
-196 117 -315 -21 -46 -70 -99 -113 -123 -17 -10 -16 -20 6 -229 12 -120 25
-242 28 -270 l6 -53 -157 0 c-118 0 -156 3 -156 13 0 6 5 46 11 87 29 219 48
445 37 449 -25 8 -91 77 -111 115 -30 57 -29 155 1 212 28 54 95 111 152 129
54 18 128 11 179 -15z"/>
<path d="M3937 4436 c-47 -17 -72 -39 -105 -90 -22 -36 -24 -47 -19 -120 6
-102 37 -190 81 -235 27 -27 44 -35 85 -39 72 -7 107 11 137 69 58 115 45 311
-25 386 -18 19 -78 44 -106 43 -5 -1 -27 -7 -48 -14z"/>
<path d="M4679 4437 c-46 -15 -79 -43 -107 -88 -46 -76 -13 -285 57 -359 69
-73 183 -61 225 23 53 110 57 240 8 337 -21 43 -37 60 -72 78 -49 25 -60 25
-111 9z"/>
<path d="M2367 4015 c-21 -43 -22 -143 -3 -188 31 -74 109 -103 169 -64 29 19
83 94 75 102 -3 3 -17 1 -32 -5 -102 -38 -197 39 -181 147 8 52 -5 56 -28 8z"/>
<path d="M2422 3443 c-50 -24 -66 -64 -67 -158 0 -68 3 -85 23 -109 l22 -29 0
57 c0 31 7 70 15 86 27 52 97 74 161 50 15 -6 28 -9 30 -8 8 9 -33 72 -60 93
-43 32 -84 38 -124 18z"/>
<path d="M4314 5615 c-9 -14 -13 -32 -9 -42 6 -16 8 -15 26 7 16 21 20 23 29
10 5 -8 11 -19 13 -24 2 -5 9 -6 15 -2 25 15 -11 76 -45 76 -7 0 -20 -11 -29
-25z"/>
<path d="M3384 5513 c-58 -102 -87 -113 -182 -68 -78 36 -137 34 -198 -7 -72
-49 -108 -106 -108 -172 0 -44 7 -64 42 -124 64 -108 54 -135 -31 -82 -59 37
-125 50 -180 37 -49 -12 -133 -103 -143 -153 -12 -65 0 -126 36 -176 40 -56
43 -109 11 -163 -17 -29 -19 -40 -10 -51 28 -33 91 -5 115 52 18 43 18 72 -1
108 -19 36 -19 36 4 36 11 0 32 10 47 23 22 19 26 29 20 50 -7 30 -30 35 -60
12 -27 -20 -49 -19 -70 4 -22 25 -23 84 -2 116 41 63 107 72 207 30 35 -15 75
-27 89 -27 36 0 60 -16 60 -39 0 -30 20 -19 58 30 38 51 40 61 7 61 -24 0 -45
25 -45 54 0 9 -13 45 -30 81 -22 47 -30 81 -30 120 0 47 4 58 34 89 33 36 70
46 111 30 28 -11 37 -51 20 -85 -17 -33 -13 -49 13 -49 29 0 59 28 65 60 6 29
8 30 45 24 47 -7 88 11 126 57 47 56 59 87 46 120 -23 54 -36 55 -66 2z"/>
<path d="M5261 5547 c-35 -43 -20 -106 39 -162 28 -26 38 -30 88 -29 59 1 72
-7 72 -42 0 -28 30 -54 63 -54 29 0 33 10 16 41 -15 29 -14 79 2 90 8 5 31 9
53 9 30 0 45 -7 72 -34 30 -30 34 -40 34 -89 0 -43 -8 -72 -35 -128 -19 -41
-35 -86 -35 -101 0 -24 -4 -28 -30 -28 -16 0 -30 -4 -30 -9 0 -4 16 -30 37
-56 34 -45 37 -47 49 -29 27 38 35 44 68 44 18 0 55 10 82 22 102 45 205 13
220 -67 15 -80 -29 -115 -98 -79 -37 19 -51 9 -46 -37 3 -29 8 -36 38 -45 29
-10 34 -16 32 -35 -15 -114 -16 -114 21 -152 36 -39 62 -46 92 -23 18 13 18
14 -4 49 -33 54 -30 106 10 168 60 94 49 199 -28 270 -51 48 -80 61 -137 61
-44 1 -66 -6 -119 -35 -92 -52 -102 -31 -37 81 53 92 56 155 8 227 -65 97
-167 130 -267 85 -24 -11 -55 -20 -70 -20 -36 0 -87 33 -105 68 -22 42 -41 55
-55 39z"/>
<path d="M5564 5356 c-3 -9 -1 -30 5 -47 17 -48 13 -100 -9 -144 -11 -22 -20
-41 -20 -42 0 -2 15 -3 33 -3 80 0 135 157 76 215 -32 32 -77 43 -85 21z"/>
<path d="M3053 5342 c-38 -29 -46 -67 -28 -130 19 -64 61 -112 99 -112 30 0
32 10 11 49 -17 33 -21 97 -10 164 8 47 8 47 -21 47 -16 0 -39 -8 -51 -18z"/>
<path d="M5536 5076 c8 -21 34 -28 50 -15 20 16 8 29 -26 29 -21 0 -28 -4 -24
-14z"/>
<path d="M3093 5068 c2 -7 14 -13 27 -13 13 0 25 6 28 13 2 8 -7 12 -28 12
-21 0 -30 -4 -27 -12z"/>
<path d="M5838 4974 c-53 -16 -98 -62 -98 -101 0 -20 3 -24 18 -18 91 39 124
43 179 20 46 -20 63 -13 63 23 0 32 -30 69 -67 83 -31 11 -37 11 -95 -7z"/>
<path d="M2730 4963 c-33 -23 -40 -33 -40 -66 0 -33 20 -43 51 -27 33 18 124
16 153 -4 32 -20 42 -20 50 0 10 27 -22 71 -67 93 -52 25 -114 27 -147 4z"/>
<path d="M2972 4904 c-5 -9 -7 -27 -4 -40 3 -19 7 -22 18 -13 16 13 19 55 5
64 -6 3 -14 -2 -19 -11z"/>
<path d="M5685 4910 c-9 -14 4 -52 16 -45 12 8 12 42 0 50 -5 3 -12 1 -16 -5z"/>
<path d="M2096 4203 c-3 -10 -8 -35 -12 -56 -6 -34 -9 -38 -28 -32 -11 4 -46
9 -77 12 -192 18 -318 -250 -185 -395 31 -34 90 -62 132 -62 l36 0 -59 58
c-90 86 -105 163 -48 238 66 87 171 88 262 2 l32 -31 7 37 c3 20 4 54 0 74 -4
30 -2 41 14 55 11 9 20 25 20 35 0 10 4 22 9 28 5 5 12 19 16 32 6 21 4 22
-54 22 -48 0 -61 -3 -65 -17z"/>
<path d="M6480 4213 c0 -24 40 -108 52 -111 12 -2 14 -19 10 -84 l-5 -82 44
36 c62 50 81 58 140 59 57 2 89 -16 127 -71 26 -38 29 -103 8 -153 -7 -18 -37
-54 -66 -80 -40 -37 -48 -48 -36 -53 55 -21 161 52 192 131 42 111 -19 251
-135 310 -34 17 -133 18 -173 1 -14 -6 -18 0 -23 31 -13 75 -11 73 -76 73 -32
0 -59 -3 -59 -7z"/>
<path d="M6294 4013 c3 -28 0 -63 -7 -83 -24 -67 -114 -100 -180 -65 -27 14
-28 14 -21 -8 12 -42 54 -85 97 -102 40 -15 47 -15 80 -2 52 22 80 82 81 172
0 48 -6 80 -17 103 -26 47 -40 41 -33 -15z"/>
<path d="M1933 3960 c-31 -13 -63 -68 -63 -110 0 -19 10 -51 22 -70 l23 -35 3
31 c4 38 27 62 70 70 26 5 36 1 62 -24 39 -39 40 -79 3 -123 -48 -57 -120 -73
-191 -44 -20 9 -73 52 -118 95 -45 44 -87 80 -93 80 -7 0 -21 -5 -32 -10 -27
-15 -26 -79 2 -114 26 -33 21 -40 -16 -26 -33 13 -87 4 -135 -21 -46 -24 -83
-56 -77 -67 11 -16 113 -81 138 -87 15 -4 44 -2 65 4 21 6 40 9 42 7 2 -3 -6
-18 -18 -34 -31 -42 -25 -93 13 -106 26 -10 33 -6 100 63 92 94 132 115 209
109 65 -5 100 -29 124 -85 18 -43 4 -78 -39 -99 -30 -14 -38 -15 -63 -3 -18 9
-33 27 -40 47 -10 33 -10 33 -29 12 -10 -11 -20 -41 -23 -70 -4 -46 -2 -52 31
-85 31 -31 41 -35 86 -35 145 0 231 136 171 268 -11 24 -33 56 -50 72 l-29 27
39 42 c71 74 81 168 26 251 -44 67 -142 99 -213 70z"/>
<path d="M6625 3956 c-68 -30 -118 -116 -108 -186 9 -69 14 -82 54 -125 l41
-45 -40 -45 c-86 -97 -77 -224 20 -292 35 -24 51 -28 105 -28 60 0 67 2 94 33
22 24 29 42 29 73 0 63 -43 133 -47 77 -3 -37 -49 -70 -87 -63 -63 13 -83 71
-46 132 25 41 69 64 128 65 64 2 113 -26 197 -111 69 -70 98 -84 123 -59 18
18 14 69 -8 106 -26 42 -26 43 11 25 42 -21 80 -11 156 39 59 38 63 42 48 58
-9 10 -43 32 -76 50 -61 32 -85 35 -148 15 l-24 -8 27 39 c27 41 34 92 14 112
-27 27 -58 12 -131 -61 -82 -83 -125 -107 -192 -107 -87 0 -145 47 -145 118 0
48 30 77 80 77 49 0 70 -21 70 -69 l0 -30 21 21 c26 26 37 109 19 142 -28 54
-119 76 -185 47z"/>
<path d="M1962 3814 c-29 -20 -28 -55 4 -88 31 -31 45 -32 67 -8 25 28 21 67
-9 91 -32 25 -33 25 -62 5z"/>
<path d="M6662 3808 c-20 -20 -14 -76 10 -100 l21 -21 29 32 c28 31 34 54 22
85 -7 19 -64 22 -82 4z"/>
<path d="M6440 3685 c-11 -20 -11 -30 -3 -45 13 -19 8 -30 -14 -30 -7 0 -13 7
-13 15 0 19 -10 19 -37 0 -35 -24 -12 -75 33 -75 17 0 24 -6 24 -19 0 -27 26
-47 44 -32 23 20 26 60 4 67 -16 5 -17 8 -7 21 12 13 14 13 25 -1 13 -19 45
-21 62 -4 9 9 8 16 -5 30 -18 20 -44 23 -60 7 -6 -6 -17 -8 -24 -4 -9 6 -7 11
6 22 15 10 17 18 9 40 -12 36 -28 39 -44 8z m1 -118 c-7 -7 -15 -6 -26 3 -12
10 -13 15 -3 21 17 11 42 -11 29 -24z"/>
<path d="M2197 3675 c-17 -24 -17 -25 8 -31 26 -6 32 -18 14 -29 -5 -4 -18 0
-28 9 -16 15 -19 14 -40 -5 l-22 -21 22 -24 c28 -29 35 -30 42 -3 5 18 11 20
32 15 16 -4 33 -2 41 5 11 9 18 9 26 1 9 -9 7 -17 -9 -32 -18 -16 -23 -17 -32
-6 -12 14 -47 11 -56 -4 -6 -9 26 -70 37 -70 4 0 15 11 26 25 11 13 31 30 45
36 15 7 29 20 32 31 14 41 -22 81 -51 57 -8 -7 -19 -7 -29 -2 -15 9 -15 11 0
23 14 12 14 15 -1 31 -22 25 -35 23 -57 -6z"/>
<path d="M6046 3644 c-8 -22 -8 -24 9 -24 20 0 19 -19 -1 -42 -15 -16 -15 -18
-1 -24 27 -10 57 14 57 46 0 22 -7 33 -29 44 -26 14 -30 14 -35 0z"/>
<path d="M2599 3634 c-31 -31 7 -95 47 -80 22 9 16 25 -12 32 l-25 6 20 22
c12 12 21 25 21 29 0 13 -36 7 -51 -9z"/>
<path d="M1844 3505 c-22 -13 -54 -43 -70 -66 -27 -39 -29 -49 -29 -130 0 -81
2 -90 30 -130 17 -23 47 -56 68 -73 35 -28 46 -31 105 -31 37 0 79 3 94 8 26
7 28 5 38 -35 6 -24 13 -49 15 -55 5 -15 125 -18 125 -4 0 17 -43 106 -55 113
-8 5 -11 30 -7 83 2 41 1 75 -3 75 -4 0 -27 -18 -52 -40 -102 -89 -225 -69
-268 45 -29 75 3 158 86 219 21 17 39 33 39 38 0 18 -77 7 -116 -17z"/>
<path d="M6783 3480 c64 -59 87 -101 87 -163 0 -82 -71 -151 -155 -149 -48 0
-89 19 -140 63 l-35 31 0 -81 c0 -58 -4 -81 -12 -81 -16 0 -59 -102 -49 -113
5 -5 32 -7 61 -5 l53 3 12 48 c7 26 14 50 17 53 3 3 29 -2 57 -11 43 -15 58
-15 100 -5 89 21 167 120 178 225 7 67 -10 117 -56 168 -41 46 -84 67 -136 67
l-37 0 55 -50z"/>
<path d="M1970 3480 c-44 -44 -33 -100 20 -100 53 0 81 68 42 103 -24 22 -38
21 -62 -3z"/>
<path d="M6662 3488 c-35 -45 -14 -108 36 -108 53 0 69 46 31 94 -22 28 -50
34 -67 14z"/>
<path d="M6162 3433 c-27 -13 -82 -84 -82 -106 0 -3 20 1 44 9 34 12 53 13 84
5 58 -16 75 -41 80 -117 2 -35 9 -64 14 -64 17 0 38 70 38 130 0 130 -78 193
-178 143z"/>
<path d="M2620 2665 c-12 -15 -11 -19 15 -65 24 -40 19 -104 -10 -138 -34 -40
-45 -74 -45 -136 0 -43 6 -61 29 -92 58 -79 100 -104 175 -104 32 0 60 11 116
45 61 36 76 41 83 29 5 -9 1 -24 -11 -42 -41 -58 -74 -136 -74 -177 -2 -108
133 -222 235 -199 18 3 53 17 79 30 26 13 59 24 73 24 37 0 80 -25 105 -60 26
-37 33 -37 55 -3 17 26 17 28 -6 71 -34 64 -70 84 -141 79 l-56 -5 -9 36 c-10
42 -46 67 -74 51 -16 -8 -17 -12 -3 -44 18 -45 18 -51 -6 -75 -13 -13 -33 -20
-59 -20 -32 0 -44 6 -70 35 -42 48 -42 106 -1 193 17 35 30 75 30 89 0 34 17
63 38 63 41 1 43 16 6 58 -19 23 -39 42 -43 42 -3 0 -12 -13 -18 -30 -9 -25
-17 -30 -43 -30 -17 0 -61 -16 -99 -35 -105 -55 -179 -46 -216 25 -19 37 -19
70 1 98 18 26 45 28 80 5 23 -15 27 -15 41 0 25 24 9 64 -32 81 -38 16 -40 21
-25 62 15 40 3 80 -36 120 -37 37 -64 43 -84 19z"/>
<path d="M5999 2657 c-56 -38 -68 -82 -44 -163 6 -18 1 -24 -29 -34 -37 -12
-54 -43 -42 -76 6 -17 16 -16 73 7 28 11 34 11 52 -6 44 -39 11 -133 -56 -161
-45 -19 -91 -12 -153 23 -25 14 -63 29 -85 32 -34 5 -41 11 -50 39 -5 17 -12
32 -15 32 -6 0 -80 -86 -80 -94 0 -2 14 -7 30 -11 25 -6 30 -11 30 -36 0 -16
16 -61 35 -99 57 -114 45 -194 -37 -236 -36 -19 -84 -10 -99 18 -8 15 -7 30 5
59 19 48 15 59 -24 59 -23 0 -33 -7 -45 -30 -8 -16 -15 -36 -15 -45 0 -17 -12
-19 -59 -5 -39 11 -71 -2 -113 -47 -50 -52 -55 -98 -15 -131 10 -9 21 -2 50
33 51 61 85 66 165 26 120 -60 233 -25 293 91 33 64 26 122 -26 211 -25 43
-43 82 -40 87 10 16 32 11 62 -14 69 -58 157 -75 219 -43 37 20 87 72 109 116
26 52 17 138 -19 186 -53 69 -54 106 -6 182 13 20 12 24 -5 37 -26 20 -26 20
-66 -7z"/>
<path d="M2964 2388 c3 -13 6 -33 6 -45 0 -14 6 -23 15 -23 16 0 21 43 9 74
-10 26 -37 20 -30 -6z"/>
<path d="M5694 2396 c-9 -23 0 -69 14 -74 8 -2 12 10 12 42 0 44 -15 62 -26
32z"/>
<path d="M2895 2368 c-29 -19 -56 -20 -175 -6 -22 3 -25 -1 -28 -33 -3 -30 2
-41 24 -58 61 -48 192 -9 213 65 13 44 2 54 -34 32z"/>
<path d="M5750 2356 c0 -41 46 -84 106 -102 51 -15 57 -14 92 3 41 20 67 62
57 93 -7 23 -30 25 -65 5 -35 -20 -89 -18 -135 5 -50 26 -55 25 -55 -4z"/>
<path d="M3095 2229 c-10 -15 1 -22 33 -24 36 -2 45 4 31 21 -13 16 -55 19
-64 3z"/>
<path d="M5536 2215 c-9 -25 -8 -26 27 -23 20 2 32 8 32 18 0 22 -51 26 -59 5z"/>
<path d="M3089 2151 c-35 -27 -70 -104 -72 -157 -2 -39 2 -49 27 -70 36 -32
93 -31 88 1 -14 83 -13 154 3 184 28 56 2 80 -46 42z"/>
<path d="M5546 2151 c-3 -5 1 -22 9 -38 17 -35 21 -138 6 -175 -15 -40 13 -54
60 -30 64 32 71 88 23 188 -15 33 -32 54 -47 58 -31 8 -45 7 -51 -3z"/>
<path d="M4114 1650 c19 -96 -31 -148 -153 -158 l-65 -5 29 -23 c66 -53 191
-55 247 -5 26 23 32 37 35 82 4 45 1 60 -19 88 -13 19 -37 43 -54 53 l-30 18
10 -50z"/>
<path d="M4540 1662 c-21 -21 -43 -56 -50 -78 -23 -78 31 -145 128 -160 54 -8
124 11 152 41 l22 23 -59 7 c-125 13 -144 27 -151 107 -2 31 1 64 7 77 19 34
-6 26 -49 -17z"/>
<path d="M4331 1411 c-9 -6 -12 -19 -7 -42 14 -77 14 -104 0 -120 -13 -15 -13
-18 1 -33 32 -31 68 -8 49 31 -5 10 -9 51 -9 92 0 74 -7 89 -34 72z"/>
<path d="M4387 1338 c-17 -9 -18 -11 -1 -29 13 -14 14 -22 6 -32 -18 -22 5
-38 34 -25 31 14 31 48 2 76 -18 16 -27 18 -41 10z"/>
<path d="M4268 1329 c-21 -12 -24 -49 -6 -67 13 -13 58 -16 58 -4 0 4 -6 14
-12 21 -11 10 -9 15 6 26 34 26 -7 47 -46 24z"/>
<path d="M3749 1295 c-2 -2 -3 -33 -1 -69 l4 -65 44 -7 c24 -3 44 -9 44 -13 0
-3 -7 -26 -16 -51 -19 -54 -14 -105 16 -163 29 -55 55 -83 109 -115 115 -67
255 -32 311 79 21 40 27 119 10 119 -5 0 -10 -5 -10 -10 0 -18 -80 -98 -114
-114 -72 -34 -153 -15 -199 46 -53 71 -37 172 40 251 l48 49 -82 -4 c-60 -3
-83 -1 -83 7 0 7 -12 18 -27 25 -59 27 -91 39 -94 35z"/>
<path d="M4880 1271 c-25 -10 -46 -26 -48 -34 -3 -13 -16 -15 -78 -13 -41 2
-74 1 -74 -1 0 -3 18 -23 41 -45 97 -95 93 -216 -11 -286 -71 -48 -195 -6
-250 84 -27 43 -40 31 -30 -27 15 -79 86 -149 173 -169 56 -12 125 7 185 50
79 57 122 192 88 273 -17 42 -18 41 47 52 37 6 37 6 37 55 0 56 -7 80 -24 79
-6 0 -31 -8 -56 -18z"/>
<path d="M4085 1224 c-71 -37 -105 -91 -105 -168 0 -62 17 -94 62 -117 49 -25
89 -24 124 3 l28 23 -29 5 c-21 4 -36 15 -49 41 -17 32 -18 40 -6 69 46 111
201 29 200 -107 -1 -59 -34 -119 -110 -197 -71 -73 -85 -107 -58 -134 18 -18
69 -14 104 7 l32 19 -5 -57 c-6 -61 5 -94 54 -159 30 -39 40 -34 84 43 30 53
38 111 19 159 -12 32 -6 33 32 1 32 -27 85 -34 106 -13 27 27 12 60 -59 135
-39 41 -79 94 -90 117 -35 78 -18 174 40 215 77 55 169 0 141 -85 -12 -37 -35
-54 -72 -54 -22 -1 -22 -2 7 -25 34 -29 73 -32 119 -10 96 46 87 211 -16 278
-80 51 -189 32 -251 -45 l-31 -39 -37 41 c-20 22 -53 47 -73 55 -46 19 -123
19 -161 -1z"/>
<path d="M4147 1092 c-24 -26 -21 -68 4 -86 19 -13 26 -13 48 -2 14 8 35 24
46 36 l20 22 -28 24 c-33 29 -68 31 -90 6z"/>
<path d="M4472 1090 c-28 -26 -28 -28 5 -62 44 -47 103 -34 103 22 0 55 -66
79 -108 40z"/>
</g>
</svg>
